{
  "accessors": [
    {
      "bufferView": 2,
      "componentType": 5126,
      "count": 582,
      "max": [
        247.48683166503906,
        182.2061004638672,
        48.89972686767578
      ],
      "min": [
        140.94284057617188,
        97.36834716796875,
        -1.0748059749603271
      ],
      "type": "VEC3"
    },
    {
      "bufferView": 2,
      "byteOffset": 6984,
      "componentType": 5126,
      "count": 582,
      "max": [
        1.0,
        1.0,
        1.0
      ],
      "min": [
        -1.0,
        -1.0,
        -1.0
      ],
      "type": "VEC3"
    },
    {
      "bufferView": 1,
      "componentType": 5126,
      "count": 582,
      "max": [
        0.9889140129089355,
        0.9668970108032227
      ],
      "min": [
        0.03518899902701378,
        0.027538999915122986
      ],
      "type": "VEC2"
    },
    {
      "bufferView": 0,
      "componentType": 5125,
      "count": 1482,
      "type": "SCALAR"
    },
    {
      "bufferView": 2,
      "byteOffset": 13968,
      "componentType": 5126,
      "count": 121,
      "max": [
        496.6307067871094,
        588.8793334960938,
        -0.0
      ],
      "min": [
        -226.14942932128906,
        -133.90078735351563,
        -0.0
      ],
      "type": "VEC3"
    },
    {
      "bufferView": 2,
      "byteOffset": 15420,
      "componentType": 5126,
      "count": 121,
      "max": [
        0.0,
        -0.0,
        1.0
      ],
      "min": [
        0.0,
        -0.0,
        1.0
      ],
      "type": "VEC3"
    },
    {
      "bufferView": 1,
      "byteOffset": 4656,
      "componentType": 5126,
      "count": 121,
      "max": [
        1.0,
        1.0
      ],
      "min": [
        0.0,
        0.0
      ],
      "type": "VEC2"
    },
    {
      "bufferView": 0,
      "byteOffset": 5928,
      "componentType": 5125,
      "count": 600,
      "type": "SCALAR"
    },
    {
      "bufferView": 2,
      "byteOffset": 16872,
      "componentType": 5126,
      "count": 504,
      "max": [
        257.7036437988281,
        343.4471435546875,
        127.08719635009766
      ],
      "min": [
        1.5970829725265503,
        202.86277770996094,
        0.9296680092811584
      ],
      "type": "VEC3"
    },
    {
      "bufferView": 2,
      "byteOffset": 22920,
      "componentType": 5126,
      "count": 504,
      "max": [
        1.0,
        1.0,
        0.8431119918823242
      ],
      "min": [
        -1.0,
        -1.0,
        0.0
      ],
      "type": "VEC3"
    },
    {
      "bufferView": 1,
      "byteOffset": 5624,
      "componentType": 5126,
      "count": 504,
      "max": [
        0.9852129817008972,
        0.8649389743804932
      ],
      "min": [
        0.014786999672651291,
        0.05090700089931488
      ],
      "type": "VEC2"
    },
    {
      "bufferView": 0,
      "byteOffset": 8328,
      "componentType": 5125,
      "count": 1476,
      "type": "SCALAR"
    },
    {
      "bufferView": 2,
      "byteOffset": 28968,
      "componentType": 5126,
      "count": 1366,
      "max": [
        138.47288513183594,
        183.02503967285156,
        107.16326904296875
      ],
      "min": [
        49.939849853515625,
        75.54509735107422,
        -0.0
      ],
      "type": "VEC3"
    },
    {
      "bufferView": 2,
      "byteOffset": 45360,
      "componentType": 5126,
      "count": 1366,
      "max": [
        1.0,
        1.0,
        1.0
      ],
      "min": [
        -1.0,
        -1.0,
        -1.0
      ],
      "type": "VEC3"
    },
    {
      "bufferView": 1,
      "byteOffset": 9656,
      "componentType": 5126,
      "count": 1366,
      "max": [
        0.9731969833374023,
        0.9870210289955139
      ],
      "min": [
        0.015553000383079052,
        0.013271999545395374
      ],
      "type": "VEC2"
    },
    {
      "bufferView": 0,
      "byteOffset": 14232,
      "componentType": 5125,
      "count": 2874,
      "type": "SCALAR"
    },
    {
      "bufferView": 2,
      "byteOffset": 61752,
      "componentType": 5126,
      "count": 1342,
      "max": [
        44.793487548828125,
        183.06390380859375,
        61.666908264160156
      ],
      "min": [
        -41.65100860595703,
        98.04743957519531,
        -0.2812210023403168
      ],
      "type": "VEC3"
    },
    {
      "bufferView": 2,
      "byteOffset": 77856,
      "componentType": 5126,
      "count": 1342,
      "max": [
        1.0,
        1.0,
        1.0
      ],
      "min": [
        -1.0,
        -1.0,
        -1.0
      ],
      "type": "VEC3"
    },
    {
      "bufferView": 1,
      "byteOffset": 20584,
      "componentType": 5126,
      "count": 1342,
      "max": [
        0.9868959784507751,
        0.9215360283851624
      ],
      "min": [
        0.014818999916315079,
        0.1362760066986084
      ],
      "type": "VEC2"
    },
    {
      "bufferView": 0,
      "byteOffset": 25728,
      "componentType": 5125,
      "count": 2310,
      "type": "SCALAR"
    },
    {
      "bufferView": 2,
      "byteOffset": 93960,
      "componentType": 5126,
      "count": 1284,
      "max": [
        233.9656524658203,
        162.8376922607422,
        107.42451477050781
      ],
      "min": [
        -23.7518367767334,
        120.37702178955078,
        48.39264678955078
      ],
      "type": "VEC3"
    },
    {
      "bufferView": 2,
      "byteOffset": 109368,
      "componentType": 5126,
      "count": 1284,
      "max": [
        0.9848080277442932,
        1.0,
        1.0
      ],
      "min": [
        -0.9848080277442932,
        -1.0,
        -1.0
      ],
      "type": "VEC3"
    },
    {
      "bufferView": 1,
      "byteOffset": 31320,
      "componentType": 5126,
      "count": 1284,
      "max": [
        0.9896429777145386,
        1.0018310546875
      ],
      "min": [
        0.02412099950015545,
        -0.0018309999722987413
      ],
      "type": "VEC2"
    },
    {
      "bufferView": 0,
      "byteOffset": 34968,
      "componentType": 5125,
      "count": 3456,
      "type": "SCALAR"
    }
  ],
  "asset": {
    "extras": {
      "author": "Joshua Rei (https://sketchfab.com/jshdsnts)",
      "license": "CC-BY-4.0 (http://creativecommons.org/licenses/by/4.0/)",
      "source": "https://sketchfab.com/3d-models/slum-42f42629a3a241968bc58c48426ad0c5",
      "title": "Slum"
    },
    "generator": "Sketchfab-12.68.0",
    "version": "2.0"
  },
  "bufferViews": [
    {
      "buffer": 0,
      "byteLength": 48792,
      "name": "floatBufferViews",
      "target": 34963
    },
    {
      "buffer": 0,
      "byteLength": 41592,
      "byteOffset": 48792,
      "byteStride": 8,
      "name": "floatBufferViews",
      "target": 34962
    },
    {
      "buffer": 0,
      "byteLength": 124776,
      "byteOffset": 90384,
      "byteStride": 12,
      "name": "floatBufferViews",
      "target": 34962
    }
  ],
  "buffers": [
    {
      "byteLength": 215160,
      "uri": "scene.bin"
    }
  ],
  "images": [
    {
      "uri": "textures/aiStandard11SG_baseColor.jpeg"
    },
    {
      "uri": "textures/aiStandard13SG_baseColor.jpeg"
    },
    {
      "uri": "textures/aiStandard4SG_baseColor.jpeg"
    },
    {
      "uri": "textures/aiStandard6SG_baseColor.jpeg"
    },
    {
      "uri": "textures/aiStandard9SG_baseColor.jpeg"
    },
    {
      "uri": "textures/aiStandard9SG_metallicRoughness.png"
    }
  ],
  "materials": [
    {
      "doubleSided": true,
      "name": "aiStandard11SG",
      "pbrMetallicRoughness": {
        "baseColorTexture": {
          "index": 0
        },
        "metallicFactor": 0.0
      }
    },
    {
      "doubleSided": true,
      "name": "aiStandard12SG",
      "pbrMetallicRoughness": {
        "baseColorFactor": [
          0.0,
          0.0,
          0.0,
          1.0
        ],
        "metallicFactor": 0.0
      }
    },
    {
      "doubleSided": true,
      "name": "aiStandard13SG",
      "pbrMetallicRoughness": {
        "baseColorTexture": {
          "index": 1
        },
        "metallicFactor": 0.0
      }
    },
    {
      "doubleSided": true,
      "name": "aiStandard4SG",
      "pbrMetallicRoughness": {
        "baseColorTexture": {
          "index": 2
        },
        "metallicFactor": 0.0
      }
    },
    {
      "doubleSided": true,
      "name": "aiStandard6SG",
      "pbrMetallicRoughness": {
        "baseColorTexture": {
          "index": 3
        },
        "metallicFactor": 0.0
      }
    },
    {
      "doubleSided": true,
      "name": "aiStandard9SG",
      "occlusionTexture": {
        "index": 5
      },
      "pbrMetallicRoughness": {
        "baseColorTexture": {
          "index": 4
        },
        "metallicFactor": 0.0,
        "metallicRoughnessTexture": {
          "index": 5
        }
      }
    }
  ],
  "meshes": [
    {
      "name": "Object_0",
      "primitives": [
        {
          "attributes": {
            "NORMAL": 1,
            "POSITION": 0,
            "TEXCOORD_0": 2
          },
          "indices": 3,
          "material": 0,
          "mode": 4
        }
      ]
    },
    {
      "name": "Object_1",
      "primitives": [
        {
          "attributes": {
            "NORMAL": 5,
            "POSITION": 4,
            "TEXCOORD_0": 6
          },
          "indices": 7,
          "material": 2,
          "mode": 4
        }
      ]
    },
    {
      "name": "Object_2",
      "primitives": [
        {
          "attributes": {
            "NORMAL": 9,
            "POSITION": 8,
            "TEXCOORD_0": 10
          },
          "indices": 11,
          "material": 3,
          "mode": 4
        }
      ]
    },
    {
      "name": "Object_3",
      "primitives": [
        {
          "attributes": {
            "NORMAL": 13,
            "POSITION": 12,
            "TEXCOORD_0": 14
          },
          "indices": 15,
          "material": 4,
          "mode": 4
        }
      ]
    },
    {
      "name": "Object_4",
      "primitives": [
        {
          "attributes": {
            "NORMAL": 17,
            "POSITION": 16,
            "TEXCOORD_0": 18
          },
          "indices": 19,
          "material": 5,
          "mode": 4
        }
      ]
    },
    {
      "name": "Object_5",
      "primitives": [
        {
          "attributes": {
            "NORMAL": 21,
            "POSITION": 20,
            "TEXCOORD_0": 22
          },
          "indices": 23,
          "material": 1,
          "mode": 4
        }
      ]
    }
  ],
  "nodes": [
    {
      "children": [
        1
      ],
      "matrix": [
        1.0,
        0.0,
        0.0,
        0.0,
        0.0,
        2.220446049250313e-16,
        -1.0,
        0.0,
        0.0,
        1.0,
        2.220446049250313e-16,
        0.0,
        0.0,
        0.0,
        0.0,
        1.0
      ],
      "name": "Sketchfab_model"
    },
    {
      "children": [
        2,
        3,
        4,
        5,
        6,
        7
      ],
      "name": "slum.obj.cleaner.materialmerger.gles"
    },
    {
      "mesh": 0,
      "name": "Object_2"
    },
    {
      "mesh": 1,
      "name": "Object_3"
    },
    {
      "mesh": 2,
      "name": "Object_4"
    },
    {
      "mesh": 3,
      "name": "Object_5"
    },
    {
      "mesh": 4,
      "name": "Object_6"
    },
    {
      "mesh": 5,
      "name": "Object_7"
    }
  ],
  "samplers": [
    {
      "magFilter": 9729,
      "minFilter": 9987,
      "wrapS": 10497,
      "wrapT": 10497
    }
  ],
  "scene": 0,
  "scenes": [
    {
      "name": "Sketchfab_Scene",
      "nodes": [
        0
      ]
    }
  ],
  "textures": [
    {
      "sampler": 0,
      "source": 0
    },
    {
      "sampler": 0,
      "source": 1
    },
    {
      "sampler": 0,
      "source": 2
    },
    {
      "sampler": 0,
      "source": 3
    },
    {
      "sampler": 0,
      "source": 4
    },
    {
      "sampler": 0,
      "source": 5
    }
  ]
}
